<?xml version="1.0" encoding="utf-8"?>
<!-- Generator: Adobe Illustrator 23.0.1, SVG Export Plug-In . SVG Version: 6.00 Build 0)  -->
<svg version="1.1" id="Layer_1" xmlns="http://www.w3.org/2000/svg" xmlns:xlink="http://www.w3.org/1999/xlink" x="0px" y="0px"
	 viewBox="168 0 194 193" xml:space="preserve">
<g>
	<path fill="#002F63" d="M321.647,96.432c0-31.03-25.301-56.809-56.809-56.809c-31.03,0-56.331,25.301-56.331,56.809
		c0,31.03,25.301,56.331,56.809,56.331c12.412,0,23.869-3.819,32.939-10.502l-15.754-15.754c-5.251,2.864-10.98,4.774-17.186,4.774
		c-19.095,0-34.849-15.276-34.849-34.849c0-19.095,15.276-34.849,34.849-34.849c15.754,0,29.12,10.98,33.417,25.301h-55.376
		l17.663,18.141h59.673C321.647,102.16,321.647,99.296,321.647,96.432z"/>
	<path fill="#002F63" d="M310.666,154.672c-12.412,10.025-28.166,15.754-45.351,15.754c-41.055,0-73.994-32.939-73.994-73.994
		c0-17.186,5.729-32.939,15.754-45.351l-16.231-16.231c-13.844,16.708-21.96,38.191-21.96,61.583
		c0,52.99,42.965,96.432,96.431,96.432c23.392,0,44.874-8.116,61.583-21.96L310.666,154.672z"/>
	<path fill="#002F63" d="M219.487,38.191c12.412-10.025,28.166-15.754,45.351-15.754c41.055,0,73.995,32.939,73.995,73.994
		c0,17.186-5.729,32.939-15.754,45.351l15.754,15.754c13.844-16.708,21.959-38.19,21.959-61.583C361.27,42.964,318.305,0,265.315,0
		c-23.392,0-44.874,8.116-61.582,21.96L219.487,38.191z"/>
</g>
</svg>
