<svg width="12" height="11" viewBox="0 0 12 11" fill="none" xmlns="http://www.w3.org/2000/svg">
  <g clip-path="url(#clip0_table)">
    <path d="M1.17 2.92H10.5V1.17H1.17V2.92ZM7 9.33V4.08H4.67V9.33H7ZM8.17 9.33H10.5V4.08H8.17V9.33ZM3.5 9.33V4.08H1.17V9.33H3.5ZM0.58 0H11.08C11.2467 0 11.3867 0.0566667 11.5 0.17C11.6133 0.283333 11.67 0.42 11.67 0.58V9.92C11.67 10.08 11.6133 10.2167 11.5 10.33C11.3867 10.4433 11.2467 10.5 11.08 10.5H0.58C0.42 10.5 0.283333 10.4433 0.17 10.33C0.0566667 10.2167 0 10.08 0 9.92V0.58C0 0.42 0.0566667 0.283333 0.17 0.17C0.283333 0.0566667 0.42 0 0.58 0Z" fill="currentColor"/>
  </g>
  <defs>
    <clipPath id="clip0_table">
      <rect width="11.6667" height="10.5" fill="white"/>
    </clipPath>
  </defs>
</svg>
