<svg width="14" height="14" viewBox="0 0 14 14" fill="none" xmlns="http://www.w3.org/2000/svg">
<g clip-path="url(#clip0_66_362)">
<path d="M6.67 6V4L9.33 6.67L6.67 9.33V7.33H4V6H6.67ZM6.67 0C7.57667 0 8.44333 0.173333 9.27 0.52C10.0567 0.86 10.76 1.33667 11.38 1.95C12 2.57 12.4767 3.27667 12.81 4.07C13.1567 4.89667 13.33 5.76333 13.33 6.67C13.33 7.57667 13.1567 8.44333 12.81 9.27C12.4767 10.0567 12 10.76 11.38 11.38C10.76 12 10.0567 12.4767 9.27 12.81C8.44333 13.1567 7.57667 13.33 6.67 13.33C5.76333 13.33 4.89667 13.1567 4.07 12.81C3.27667 12.4767 2.57 12 1.95 11.38C1.33667 10.76 0.86 10.0567 0.52 9.27C0.173333 8.44333 0 7.57667 0 6.67C0 5.76333 0.173333 4.89667 0.52 4.07C0.86 3.27667 1.33667 2.57 1.95 1.95C2.57 1.33667 3.27667 0.86 4.07 0.52C4.89667 0.173333 5.76333 0 6.67 0ZM6.67 12C7.63667 12 8.53333 11.7567 9.36 11.27C10.16 10.7967 10.7967 10.16 11.27 9.36C11.7567 8.53333 12 7.63667 12 6.67C12 5.69667 11.7567 4.79667 11.27 3.97C10.7967 3.17 10.16 2.53667 9.36 2.07C8.53333 1.57667 7.63667 1.33 6.67 1.33C5.69667 1.33 4.79667 1.57667 3.97 2.07C3.17 2.53667 2.53667 3.17 2.07 3.97C1.57667 4.79667 1.33 5.69667 1.33 6.67C1.33 7.63667 1.57667 8.53333 2.07 9.36C2.53667 10.16 3.17 10.7967 3.97 11.27C4.79667 11.7567 5.69667 12 6.67 12Z" fill="currentColor"/>
</g>
<defs>
<clipPath id="clip0_66_362">
<rect width="13.3333" height="13.3333" fill="white"/>
</clipPath>
</defs>
</svg>
