<svg xmlns="http://www.w3.org/2000/svg" width="400" height="400" viewBox="0 0 400 400">
<g>
<path d="M 147.11 195.00 C146.58,195.00 144.81,196.13 143.16,197.52 L 140.17 200.03 L 140.12 193.33 C140.07,186.51 141.05,184.00 143.74,184.00 C145.84,184.00 150.72,178.14 151.38,174.83 C151.78,172.87 153.13,171.46 156.08,169.96 C158.36,168.79 160.45,166.98 160.73,165.92 C161.01,164.86 161.60,164.00 162.05,164.00 C162.49,164.00 163.65,163.21 164.61,162.25 C165.89,160.98 167.82,160.54 171.73,160.63 C174.68,160.70 177.36,161.02 177.67,161.34 C177.99,161.66 176.84,163.10 175.13,164.55 C173.41,165.99 172.00,167.76 172.00,168.48 C172.00,169.19 171.44,169.76 170.75,169.73 C164.39,169.50 159.40,172.59 160.34,176.19 C160.65,177.40 159.99,178.06 158.05,178.49 C156.55,178.82 153.63,180.82 151.57,182.93 C148.54,186.04 148.00,187.14 148.79,188.64 C149.85,190.66 148.70,195.00 147.11,195.00 ZM 139.56 214.58 C138.78,215.36 137.71,216.00 137.19,216.00 C135.36,216.00 134.23,207.17 135.61,203.58 C136.50,201.24 138.89,201.66 139.42,204.25 C140.88,211.55 140.91,213.23 139.56,214.58 ZM 188.83 159.90 C187.14,162.61 185.51,162.56 183.53,159.75 C181.98,157.55 182.02,157.49 185.57,157.18 C190.01,156.80 190.51,157.21 188.83,159.90 Z" fill="rgb(24,183,129)"/>
<path d="M 267.20 378.88 C244.52,383.66 215.90,371.03 206.98,352.29 C205.62,349.42 204.19,347.06 203.80,347.04 C203.42,347.02 201.45,350.16 199.42,354.02 C190.53,370.93 175.56,379.70 157.08,378.82 C150.04,378.48 147.23,377.83 141.70,375.24 C132.29,370.84 123.91,362.62 119.29,353.27 C115.15,344.89 114.70,344.94 111.03,354.25 C108.18,361.49 99.80,369.53 90.25,374.20 C83.71,377.40 83.11,377.50 71.00,377.50 C59.27,377.50 58.14,377.32 52.66,374.63 C45.31,371.03 36.32,362.17 32.72,355.00 C31.20,351.98 29.09,345.92 28.02,341.55 C26.96,337.17 25.15,332.45 24.01,331.05 C22.87,329.65 20.71,326.02 19.22,323.00 C16.90,318.30 16.50,316.26 16.52,309.00 C16.54,302.16 16.98,299.68 18.78,296.28 C25.98,282.67 38.52,276.87 49.73,281.96 C53.71,283.77 57.99,288.84 58.00,291.75 C58.00,292.63 55.95,293.00 51.07,293.00 C44.71,293.00 43.97,293.22 41.97,295.75 C40.23,297.96 39.89,299.44 40.26,303.28 C41.81,319.58 68.22,322.56 81.38,307.92 C87.03,301.64 89.88,295.75 91.30,287.43 C92.96,277.76 90.96,271.61 76.50,242.00 C59.87,207.94 56.00,193.87 56.00,167.40 C56.00,135.61 63.68,109.84 80.86,84.02 C87.78,73.62 104.42,56.17 115.16,48.06 C139.27,29.85 173.93,18.03 203.26,18.01 C238.61,17.98 277.48,33.03 302.79,56.55 C321.80,74.21 335.67,95.79 343.90,120.50 C348.91,135.56 351.04,148.74 351.07,164.90 C351.11,191.94 346.65,209.55 332.04,240.00 C320.96,263.06 320.00,265.98 320.00,276.38 C320.00,283.62 320.39,285.45 323.03,290.74 C328.89,302.47 339.42,309.46 351.17,309.42 C356.80,309.39 358.45,308.96 361.83,306.62 C367.78,302.49 369.18,300.54 369.74,295.62 C370.17,291.78 369.88,290.79 367.67,288.58 C365.48,286.39 364.20,286.00 359.21,286.00 C355.98,286.00 353.05,285.72 352.71,285.37 C351.52,284.19 355.03,279.05 358.74,276.53 C365.37,272.02 376.74,273.54 383.34,279.80 C388.83,285.01 390.49,289.58 390.48,299.50 C390.47,311.10 388.03,316.95 380.23,324.07 C370.33,333.12 359.90,337.00 345.50,337.00 C334.18,337.00 329.38,335.62 312.58,327.51 C290.08,316.65 282.45,316.30 268.23,325.47 C253.22,335.16 249.04,337.68 244.21,339.92 C241.34,341.25 239.00,342.68 239.00,343.09 C239.00,344.44 247.25,350.94 251.69,353.09 C264.51,359.30 276.99,354.03 277.00,342.40 C277.00,337.83 275.29,335.69 270.19,333.91 C268.43,333.30 267.00,332.26 267.00,331.60 C267.00,329.03 269.58,328.00 276.05,328.00 C284.41,328.00 288.46,330.41 291.96,337.46 C293.84,341.26 294.40,343.93 294.35,348.96 C294.21,364.04 283.93,375.36 267.20,378.88 ZM 190.50 322.07 C202.56,324.03 229.90,320.82 234.63,316.89 C235.27,316.36 236.17,316.02 236.64,316.14 C237.12,316.25 238.85,315.77 240.50,315.06 C242.15,314.36 245.52,312.90 248.00,311.83 C250.48,310.76 254.15,308.45 256.16,306.69 C258.17,304.94 263.45,300.44 267.90,296.70 C272.49,292.84 276.25,288.84 276.60,287.45 C276.94,286.10 277.59,285.00 278.04,285.00 C278.87,285.00 279.13,284.55 285.26,272.50 C293.09,257.10 295.56,244.59 294.64,225.00 C294.01,211.67 291.92,201.87 287.75,192.77 C280.40,176.72 262.10,157.31 247.65,150.25 C230.43,141.83 214.43,138.37 197.35,139.37 C186.30,140.02 176.43,142.67 162.57,148.72 C138.94,159.03 117.63,186.88 113.39,212.99 C111.53,224.44 111.62,241.43 113.58,250.07 C116.29,261.95 124.38,279.18 128.87,282.60 C129.66,283.20 129.99,284.21 129.59,284.85 C129.20,285.48 129.25,286.00 129.70,286.00 C130.15,286.00 131.07,287.27 131.76,288.81 C133.06,291.75 146.96,304.08 155.35,309.73 C158.02,311.53 162.75,313.70 165.85,314.55 C168.96,315.39 172.35,316.56 173.39,317.14 C176.10,318.65 184.68,321.12 190.50,322.07 ZM 233.80 97.95 C238.16,102.31 243.02,102.18 247.60,97.60 C251.56,93.64 251.98,90.11 249.04,85.30 C246.15,80.57 238.68,79.59 233.62,83.29 C232.35,84.21 231.58,86.34 231.25,89.79 C230.80,94.47 231.01,95.17 233.80,97.95 ZM 159.69 117.20 C163.41,121.09 168.77,121.07 173.15,117.15 C175.89,114.71 176.32,113.69 176.19,109.90 C175.98,103.98 172.70,101.00 166.40,101.00 C160.28,101.00 157.00,104.19 157.00,110.15 C157.00,113.39 157.63,115.05 159.69,117.20 Z" fill="rgb(26,38,53)"/>
<path d="M 139.56 214.58 C139.93,214.21 140.19,213.82 140.36,213.30 C140.40,218.30 139.99,220.44 138.75,221.68 C137.19,223.24 137.01,223.16 136.04,220.61 C135.32,218.72 134.94,213.35 135.02,209.05 C135.17,212.52 136.04,216.00 137.19,216.00 C137.71,216.00 138.78,215.36 139.56,214.58 ZM 188.83 159.90 C190.51,157.21 190.01,156.80 185.57,157.18 C183.32,157.38 182.48,157.47 182.56,158.08 C182.38,157.47 182.73,157.17 183.60,156.68 C185.81,155.45 196.00,156.83 196.00,158.36 C196.00,159.04 193.97,160.13 191.49,160.79 C189.08,161.43 187.62,161.81 186.62,161.87 C187.37,161.74 188.09,161.08 188.83,159.90 ZM 140.11 207.91 C139.93,206.87 139.70,205.67 139.42,204.25 C139.27,203.53 138.98,202.97 138.62,202.60 C139.01,202.97 139.35,203.52 139.58,204.25 C139.78,204.88 139.97,206.24 140.11,207.91 ZM 183.78 160.09 C184.55,161.11 185.26,161.69 185.95,161.85 C185.04,161.73 184.55,161.17 183.78,160.09 ZM 135.61 203.58 C135.93,202.74 136.43,202.26 136.98,202.11 C136.44,202.27 135.93,202.75 135.61,203.58 Z" fill="rgb(65,171,136)"/>
<path d="M 147.11 195.00 C147.88,195.00 148.54,193.99 148.91,192.71 C148.61,193.87 147.57,196.44 146.35,199.00 C144.90,202.02 142.73,208.23 141.51,212.80 C141.11,214.30 140.68,215.77 140.26,217.08 C140.34,216.04 140.37,214.80 140.36,213.30 C140.67,212.28 140.59,210.74 140.11,207.91 C139.97,206.24 139.78,204.88 139.58,204.25 C139.35,203.52 139.01,202.97 138.62,202.60 C138.14,202.12 137.54,201.94 136.98,202.11 C136.43,202.26 135.93,202.74 135.61,203.58 C135.57,203.68 135.53,203.78 135.50,203.89 C135.93,199.35 136.72,194.93 137.91,191.84 C139.10,188.73 142.36,182.76 145.15,178.57 C150.56,170.44 156.73,165.15 165.66,161.47 C165.26,161.69 164.92,161.94 164.61,162.25 C163.65,163.21 162.49,164.00 162.05,164.00 C161.60,164.00 161.01,164.86 160.73,165.92 C160.45,166.98 158.36,168.79 156.08,169.96 C153.13,171.46 151.78,172.87 151.38,174.83 C150.72,178.14 145.84,184.00 143.74,184.00 C141.05,184.00 140.07,186.51 140.12,193.33 L 140.17 200.03 L 143.16 197.52 C144.81,196.13 146.58,195.00 147.11,195.00 ZM 183.53 156.72 C182.71,157.19 182.39,157.49 182.56,158.08 C182.61,158.42 182.96,158.94 183.53,159.75 C183.61,159.87 183.70,159.98 183.78,160.09 C184.55,161.17 185.04,161.73 185.95,161.85 C186.18,161.90 186.40,161.91 186.62,161.87 C187.00,161.85 187.44,161.78 187.97,161.67 C182.98,163.21 178.59,165.54 171.11,170.46 C164.62,174.73 150.53,188.49 149.11,191.79 C149.28,190.65 149.22,189.46 148.79,188.64 C148.00,187.14 148.54,186.04 151.57,182.93 C153.63,180.82 156.55,178.82 158.05,178.49 C159.99,178.06 160.65,177.40 160.34,176.19 C159.40,172.59 164.39,169.50 170.75,169.73 C171.44,169.76 172.00,169.19 172.00,168.48 C172.00,167.76 173.41,165.99 175.13,164.55 C176.84,163.10 177.99,161.66 177.67,161.34 C177.36,161.02 174.68,160.70 171.73,160.63 C169.51,160.58 167.93,160.70 166.74,161.04 C170.45,159.60 174.63,158.41 179.42,157.40 C180.82,157.10 182.20,156.88 183.53,156.72 ZM 190.85 156.52 C193.32,156.71 195.08,157.21 195.65,157.86 C194.88,157.31 192.96,156.82 190.85,156.52 ZM 135.53 218.34 C135.67,219.30 135.84,220.09 136.04,220.61 C136.38,221.50 136.62,222.09 136.86,222.41 C136.26,221.88 135.81,220.40 135.53,218.34 Z" fill="rgb(34,189,137)"/>
<path d="M 227.02 252.75 C227.00,255.33 225.94,255.66 224.49,253.55 C223.66,252.33 221.38,252.24 210.00,252.99 C195.62,253.94 190.67,253.64 184.86,251.47 C182.86,250.72 181.00,250.34 180.71,250.62 C179.88,251.45 177.79,244.14 178.52,242.96 C179.50,241.38 179.95,236.78 179.34,234.65 C178.96,233.36 178.12,232.94 176.51,233.24 C174.58,233.61 174.04,233.08 173.07,229.85 C172.23,227.03 172.22,225.46 173.03,223.95 C173.64,222.81 173.85,220.60 173.51,219.04 C173.16,217.47 173.32,215.92 173.85,215.59 C174.38,215.27 174.58,214.12 174.30,213.04 C173.96,211.73 174.72,210.26 176.64,208.57 C179.54,206.03 181.63,205.17 180.50,207.00 C180.16,207.55 180.45,208.00 181.14,208.00 C182.93,208.00 187.92,202.99 187.48,201.64 C187.27,201.01 188.51,199.39 190.23,198.03 C192.33,196.37 193.49,195.96 193.76,196.78 C194.32,198.45 198.66,198.33 199.31,196.62 C199.61,195.86 199.34,194.74 198.73,194.13 C197.90,193.30 198.11,192.64 199.52,191.61 C201.17,190.40 201.59,190.42 202.55,191.73 C203.38,192.88 204.14,193.00 205.58,192.24 C207.16,191.40 208.65,192.09 213.93,196.09 C217.84,199.05 220.43,201.76 220.52,203.00 C220.71,205.58 223.76,207.92 227.00,207.98 C230.65,208.05 232.41,209.52 232.63,212.69 C232.94,217.19 234.80,223.43 235.94,223.81 C236.65,224.05 236.62,224.84 235.85,226.27 C235.23,227.43 234.42,229.52 234.05,230.91 C233.64,232.43 232.44,233.66 231.03,233.99 C229.74,234.30 228.20,235.35 227.59,236.34 C226.71,237.78 226.94,238.48 228.74,239.97 L 230.99 241.81 L 229.02 246.16 C227.93,248.54 227.03,251.51 227.02,252.75 ZM 262.74 301.06 C265.71,298.37 267.60,296.51 265.98,297.75 C263.63,299.55 262.52,299.29 264.13,297.32 C265.33,295.86 265.29,295.76 263.86,296.57 C262.97,297.08 260.70,299.52 258.83,302.00 C254.29,308.00 246.90,312.09 241.14,311.80 C238.24,311.66 236.40,312.08 235.64,313.08 C234.26,314.88 231.00,314.42 231.00,312.43 C231.00,311.64 231.40,311.00 231.88,311.00 C232.37,311.00 233.01,309.99 233.31,308.75 C233.61,307.51 234.28,304.87 234.79,302.88 C235.31,300.89 235.35,298.59 234.89,297.77 C234.33,296.77 235.05,294.41 237.02,290.77 C239.52,286.17 240.37,285.35 242.29,285.72 C243.89,286.02 245.70,285.13 248.30,282.75 C250.34,280.88 251.78,279.12 251.50,278.83 C251.22,278.55 252.82,277.77 255.07,277.10 C258.22,276.15 259.47,276.15 260.58,277.07 C261.52,277.84 263.70,278.03 266.89,277.61 C272.15,276.91 273.00,277.59 273.00,282.51 C273.00,283.80 273.68,285.54 274.52,286.37 C275.87,287.73 275.69,288.30 272.81,291.70 L 270.52 294.40 C269.70,295.15 268.82,295.93 267.90,296.70 C266.23,298.11 264.43,299.63 262.74,301.06 ZM 170.44 309.92 C168.51,311.62 166.83,312.93 166.72,312.85 C166.60,312.77 165.20,312.51 163.61,312.27 C160.80,311.85 152.85,307.30 152.15,305.71 C151.18,303.50 146.64,299.00 145.38,299.00 C143.96,299.00 142.40,297.80 135.30,291.24 C132.77,288.90 132.06,287.63 132.77,286.74 C134.01,285.20 135.00,280.68 135.18,275.75 C135.33,271.95 136.29,271.25 139.00,273.00 C140.26,273.81 140.19,273.97 138.60,273.98 C136.75,274.00 136.75,274.07 138.50,276.00 C140.48,278.19 143.11,278.54 146.00,277.00 C147.26,276.32 149.48,276.38 152.89,277.16 C157.14,278.15 158.00,278.74 158.51,281.06 C158.84,282.56 160.01,284.61 161.11,285.60 C162.80,287.13 163.43,287.21 165.15,286.14 C166.28,285.44 167.29,285.01 167.42,285.18 C169.99,288.89 171.74,293.29 171.29,294.98 C170.81,296.85 171.56,299.02 175.22,306.35 C175.87,307.65 175.81,308.00 175.04,307.53 C174.44,307.15 172.36,308.23 170.44,309.92 ZM 245.66 312.84 C249.42,310.96 253.51,308.59 256.30,306.57 C256.25,306.61 256.20,306.65 256.16,306.69 C254.15,308.45 250.48,310.76 248.00,311.83 C247.28,312.14 246.47,312.49 245.66,312.84 ZM 276.41 287.91 C276.52,287.68 276.60,287.47 276.65,287.28 C276.96,286.03 277.58,285.00 278.03,285.00 C277.58,285.00 276.94,286.10 276.60,287.45 C276.57,287.58 276.51,287.73 276.41,287.91 Z" fill="rgb(33,65,74)"/>
<path d="M 190.50 322.07 C184.68,321.12 176.10,318.65 173.39,317.14 C172.35,316.56 168.96,315.39 165.85,314.55 C162.75,313.70 158.02,311.53 155.35,309.73 C146.96,304.08 133.06,291.75 131.76,288.81 C131.07,287.27 130.15,286.00 129.70,286.00 C129.25,286.00 129.20,285.48 129.59,284.85 C129.99,284.21 129.66,283.20 128.87,282.60 C128.79,282.54 128.71,282.48 128.63,282.41 C128.65,282.42 128.67,282.43 128.68,282.43 C129.48,282.74 130.20,281.89 130.55,280.21 C130.87,278.72 131.34,276.47 131.59,275.21 C131.85,273.95 132.76,272.65 133.62,272.32 C133.91,272.20 134.75,272.26 135.94,272.47 C135.47,272.99 135.25,274.06 135.18,275.75 C135.00,280.68 134.01,285.20 132.77,286.74 C132.06,287.63 132.77,288.90 135.30,291.24 C142.40,297.80 143.96,299.00 145.38,299.00 C146.64,299.00 151.18,303.50 152.15,305.71 C152.85,307.30 160.80,311.85 163.61,312.27 C165.20,312.51 166.60,312.77 166.72,312.85 C166.83,312.93 168.51,311.62 170.44,309.92 C172.36,308.23 174.44,307.15 175.04,307.53 C175.81,308.00 175.87,307.65 175.22,306.35 C171.56,299.02 170.81,296.85 171.29,294.98 C171.61,293.77 170.80,291.14 169.36,288.39 C171.13,291.18 173.47,294.80 175.65,298.09 C179.14,303.36 182.00,308.43 182.00,309.35 C182.00,310.35 180.17,311.91 177.49,313.22 C175.00,314.43 173.12,315.88 173.31,316.46 C173.75,317.82 183.03,320.86 190.00,321.92 C191.80,322.19 193.63,322.41 195.47,322.56 C193.64,322.46 191.96,322.30 190.50,322.07 ZM 231.45 313.54 C231.43,313.54 231.41,313.53 231.40,313.52 C229.34,312.66 227.05,311.46 226.32,310.85 C224.93,309.69 225.56,308.32 231.94,298.61 C233.35,296.47 236.52,291.33 239.00,287.18 L 243.50 279.65 L 249.50 278.39 C254.43,277.36 263.55,274.75 274.20,271.34 C275.98,270.77 276.21,271.32 277.52,279.40 C278.13,283.21 278.19,283.26 280.00,281.40 C280.67,280.72 281.37,279.81 282.09,278.71 C279.00,284.72 278.70,285.00 278.04,285.00 L 278.03 285.00 C277.58,285.00 276.96,286.03 276.65,287.28 C276.60,287.47 276.52,287.68 276.41,287.91 C275.73,289.22 273.46,291.71 270.52,294.40 L 272.81 291.70 C275.69,288.30 275.87,287.73 274.52,286.37 C273.68,285.54 273.00,283.80 273.00,282.51 C273.00,277.59 272.15,276.91 266.89,277.61 C263.70,278.03 261.52,277.84 260.58,277.07 C259.47,276.15 258.22,276.15 255.07,277.10 C252.82,277.77 251.22,278.55 251.50,278.83 C251.78,279.12 250.34,280.88 248.30,282.75 C245.70,285.13 243.89,286.02 242.29,285.72 C240.37,285.35 239.52,286.17 237.02,290.77 C235.05,294.41 234.33,296.77 234.89,297.77 C235.35,298.59 235.31,300.89 234.79,302.88 C234.28,304.87 233.61,307.51 233.31,308.75 C233.01,309.99 232.37,311.00 231.88,311.00 C231.40,311.00 231.00,311.64 231.00,312.43 C231.00,312.88 231.17,313.26 231.45,313.54 ZM 226.00 255.00 C225.40,256.25 221.73,256.54 203.77,256.77 L 182.26 257.04 L 179.62 249.29 C180.03,250.28 180.44,250.89 180.71,250.62 C181.00,250.34 182.86,250.72 184.86,251.47 C190.67,253.64 195.62,253.94 210.00,252.99 C221.38,252.24 223.66,252.33 224.49,253.55 C225.09,254.41 225.61,254.87 226.03,254.93 C226.02,254.95 226.01,254.98 226.00,255.00 ZM 236.42 224.27 C236.35,224.05 236.19,223.90 235.94,223.81 C234.80,223.43 232.94,217.19 232.63,212.69 C232.41,209.52 230.65,208.05 227.00,207.98 C223.76,207.92 220.71,205.58 220.52,203.00 C220.44,201.93 218.47,199.73 215.40,197.24 C218.12,199.24 220.93,201.32 222.83,202.75 C225.95,205.08 230.88,208.65 233.79,210.67 C239.58,214.68 239.70,215.13 236.42,224.27 ZM 167.34 285.14 C167.05,285.11 166.14,285.52 165.15,286.14 C163.43,287.21 162.80,287.13 161.11,285.60 C160.01,284.61 158.84,282.56 158.51,281.06 C158.00,278.74 157.14,278.15 152.89,277.16 C149.48,276.38 147.26,276.32 146.00,277.00 C143.11,278.54 140.48,278.19 138.50,276.00 C136.75,274.07 136.75,274.00 138.60,273.98 C140.08,273.97 140.24,273.83 139.24,273.16 C141.07,273.60 143.18,274.17 145.34,274.83 C150.93,276.55 157.10,278.22 159.06,278.55 C163.64,279.32 164.14,279.70 166.95,284.50 C167.06,284.69 167.19,284.90 167.34,285.14 ZM 262.74 301.06 C260.04,303.35 257.59,305.44 256.30,306.57 C253.51,308.59 249.42,310.96 245.66,312.84 C243.70,313.69 241.67,314.56 240.50,315.06 C238.85,315.77 237.12,316.25 236.64,316.14 C236.17,316.02 235.27,316.36 234.63,316.89 C233.04,318.21 228.91,319.45 223.66,320.43 C225.76,319.95 227.85,319.40 229.92,318.78 C234.97,317.27 235.90,315.84 232.79,314.18 C233.78,314.32 234.95,313.98 235.64,313.08 C236.40,312.08 238.24,311.66 241.14,311.80 C246.90,312.09 254.29,308.00 258.83,302.00 C260.70,299.52 262.97,297.08 263.86,296.57 C265.29,295.76 265.33,295.86 264.13,297.32 C262.52,299.29 263.63,299.55 265.98,297.75 C267.60,296.51 265.71,298.37 262.74,301.06 ZM 175.88 209.30 C174.52,210.69 174.01,211.92 174.30,213.04 C174.58,214.12 174.38,215.27 173.85,215.59 C173.32,215.92 173.16,217.47 173.51,219.04 C173.85,220.60 173.64,222.81 173.03,223.95 C172.22,225.46 172.23,227.03 173.07,229.85 C173.14,230.06 173.20,230.26 173.26,230.45 C170.77,222.88 169.00,216.98 169.00,216.18 C169.00,215.38 171.62,212.82 175.88,209.30 ZM 173.39 230.85 C174.18,233.19 174.80,233.57 176.51,233.24 C178.12,232.94 178.96,233.36 179.34,234.65 C179.95,236.78 179.50,241.38 178.52,242.96 C178.16,243.56 178.50,245.71 179.05,247.60 L 175.63 237.55 C174.84,235.24 174.09,232.98 173.39,230.85 ZM 230.73 241.60 L 228.74 239.97 C226.94,238.48 226.71,237.78 227.59,236.34 C228.20,235.35 229.74,234.30 231.03,233.99 C232.44,233.66 233.64,232.43 234.05,230.91 C234.33,229.84 234.88,228.36 235.40,227.21 C234.54,229.74 233.44,233.13 232.53,236.00 C231.91,237.95 231.31,239.83 230.73,241.60 ZM 188.72 199.42 C187.85,200.35 187.34,201.22 187.48,201.64 C187.92,202.99 182.93,208.00 181.14,208.00 C180.45,208.00 180.16,207.55 180.50,207.00 C181.25,205.79 180.58,205.76 179.20,206.61 C181.99,204.41 185.22,201.97 188.72,199.42 ZM 198.56 192.47 C198.08,193.06 198.15,193.55 198.73,194.13 C199.34,194.74 199.61,195.86 199.31,196.62 C198.66,198.33 194.32,198.45 193.76,196.78 C193.64,196.42 193.36,196.30 192.91,196.40 C194.43,195.33 195.98,194.24 197.56,193.15 ZM 209.93 193.23 C207.69,191.80 206.66,191.66 205.58,192.24 C204.14,193.00 203.38,192.88 202.55,191.73 C201.98,190.96 201.61,190.64 201.06,190.74 L 203.87 188.81 ZM 291.36 202.60 C288.86,194.45 284.95,186.68 279.59,179.19 C282.92,183.75 285.75,188.39 287.75,192.77 C289.20,195.92 290.39,199.16 291.36,202.60 ZM 193.71 139.66 C183.84,140.87 173.70,143.87 162.57,148.72 C174.89,143.35 184.06,140.65 193.71,139.66 ZM 288.11 266.47 C290.45,260.57 292.49,253.97 293.61,248.29 C292.55,254.55 290.76,260.37 288.11,266.47 ZM 227.05 252.39 C227.19,251.00 228.03,248.34 229.02,246.16 L 229.81 244.40 C228.72,247.68 227.77,250.44 227.05,252.39 ZM 121.58 271.63 C118.72,265.88 115.95,258.89 114.28,252.82 C115.96,258.74 118.79,265.85 121.58,271.63 ZM 294.78 235.55 C294.90,228.99 294.54,221.44 293.82,215.06 C294.20,218.16 294.47,221.45 294.64,225.00 C294.82,228.75 294.87,232.25 294.78,235.55 ZM 112.24 239.02 C111.78,230.61 112.16,220.58 113.39,212.99 C112.19,220.41 111.81,230.60 112.24,239.02 ZM 255.18 154.77 C252.84,153.15 250.42,151.69 247.86,150.35 C250.22,151.52 252.68,153.01 255.18,154.77 ZM 235.32 145.00 C233.95,144.52 232.53,144.04 231.05,143.58 C229.64,143.13 228.23,142.72 226.84,142.33 C229.66,143.08 232.48,143.97 235.32,145.00 Z" fill="rgb(37,58,66)"/>
<path d="M 190.85 156.52 C190.75,156.50 190.65,156.49 190.54,156.48 C191.26,156.51 191.95,156.55 192.63,156.62 C196.13,156.98 199.00,157.68 199.00,158.17 C199.00,159.16 198.78,159.24 191.00,160.97 C186.87,161.89 183.59,163.08 179.37,165.39 C182.49,163.68 185.14,162.55 187.97,161.67 C188.85,161.49 189.99,161.19 191.49,160.79 C193.97,160.13 196.00,159.04 196.00,158.36 C196.00,158.19 195.87,158.03 195.65,157.86 C195.08,157.21 193.32,156.71 190.85,156.52 ZM 144.84 179.03 C142.13,183.18 139.06,188.84 137.91,191.84 C139.48,187.74 141.99,183.19 144.84,179.03 ZM 180.17 157.25 C179.92,157.30 179.67,157.35 179.42,157.40 C175.91,158.14 172.73,158.98 169.82,159.94 C173.22,158.76 176.73,157.85 180.17,157.25 ZM 156.77 166.29 C155.25,167.35 153.83,168.51 152.48,169.77 C153.60,168.69 154.69,167.75 155.74,167.00 C156.08,166.76 156.42,166.52 156.77,166.29 Z" fill="rgb(107,203,171)"/>
<path d="M 183.53 156.72 C182.44,156.85 181.32,157.03 180.17,157.25 C176.73,157.85 173.22,158.76 169.82,159.94 C168.76,160.29 167.73,160.66 166.74,161.04 C166.34,161.16 165.98,161.30 165.66,161.47 C162.35,162.84 159.42,164.42 156.77,166.29 C156.42,166.52 156.08,166.76 155.74,167.00 C154.69,167.75 153.60,168.69 152.48,169.77 C149.81,172.27 147.41,175.17 145.15,178.57 C145.05,178.72 144.95,178.87 144.84,179.03 C141.99,183.19 139.48,187.74 137.91,191.84 C136.72,194.93 135.93,199.35 135.50,203.89 C135.07,205.22 134.94,207.13 135.02,209.05 C134.96,212.16 135.15,215.84 135.53,218.34 L 135.53 218.34 C135.61,218.92 135.70,219.44 135.80,219.92 C135.34,218.46 135.00,216.59 135.00,215.43 C135.00,214.10 134.55,213.00 134.00,213.00 C131.25,213.00 134.55,191.85 138.52,183.97 C139.78,181.48 141.98,178.81 143.40,178.05 C144.83,177.29 145.79,176.46 145.54,176.20 C144.71,175.38 150.82,167.34 153.69,165.49 C155.24,164.50 156.85,163.11 157.27,162.40 C157.69,161.69 161.97,159.95 166.77,158.53 C171.57,157.11 176.33,155.49 177.33,154.92 C179.47,153.71 195.00,154.77 195.00,156.13 C195.00,156.61 195.90,157.00 197.00,157.00 C198.15,157.00 198.86,157.51 198.97,158.08 C198.66,157.60 195.93,156.96 192.63,156.62 C191.95,156.55 191.26,156.51 190.54,156.48 C187.74,156.10 184.69,156.07 183.60,156.68 C183.58,156.70 183.55,156.71 183.53,156.72 ZM 195.78 159.88 C197.41,159.49 198.21,159.24 198.61,158.98 C198.41,159.15 198.13,159.30 197.75,159.41 C197.46,159.49 196.74,159.66 195.78,159.88 ZM 141.51 212.80 C141.06,214.51 140.64,215.99 140.25,217.23 C140.25,217.18 140.26,217.13 140.26,217.08 C140.68,215.77 141.11,214.30 141.51,212.80 Z" fill="rgb(191,221,214)"/>
<path d="M 231.45 313.54 C231.78,313.88 232.26,314.10 232.79,314.18 C235.90,315.84 234.97,317.27 229.92,318.78 C227.85,319.40 225.76,319.95 223.66,320.43 C215.15,322.03 203.73,322.98 195.47,322.56 C193.63,322.41 191.80,322.19 190.00,321.92 C183.03,320.86 173.75,317.82 173.31,316.46 C173.12,315.88 175.00,314.43 177.49,313.22 C180.17,311.91 182.00,310.35 182.00,309.35 C182.00,308.43 179.14,303.36 175.65,298.09 C173.47,294.80 171.13,291.18 169.36,288.39 C168.80,287.31 168.14,286.22 167.42,285.18 C167.40,285.16 167.37,285.15 167.34,285.14 C167.19,284.90 167.06,284.69 166.95,284.50 C164.14,279.70 163.64,279.32 159.06,278.55 C157.10,278.22 150.93,276.55 145.34,274.83 C143.18,274.17 141.07,273.60 139.24,273.16 C139.17,273.11 139.09,273.06 139.00,273.00 C137.49,272.03 136.52,271.81 135.94,272.47 C134.75,272.26 133.91,272.20 133.62,272.32 C132.76,272.65 131.85,273.95 131.59,275.21 C131.34,276.47 130.87,278.72 130.55,280.21 C130.20,281.89 129.48,282.74 128.68,282.43 C128.67,282.43 128.65,282.42 128.63,282.41 C126.68,280.76 124.10,276.68 121.58,271.63 C118.79,265.85 115.96,258.74 114.28,252.82 C114.03,251.94 113.81,251.07 113.62,250.23 C113.66,250.30 113.70,250.37 113.75,250.41 C114.04,250.71 114.67,250.71 115.14,250.41 C116.27,249.71 116.25,246.00 115.12,246.00 C114.30,246.00 113.41,248.31 113.49,249.64 C112.88,246.79 112.46,243.09 112.24,239.02 C111.81,230.60 112.19,220.41 113.39,212.99 C117.63,186.88 138.94,159.03 162.57,148.72 C173.70,143.87 183.84,140.87 193.71,139.66 C194.92,139.54 196.13,139.44 197.35,139.37 C207.40,138.78 217.07,139.73 226.84,142.33 C228.23,142.72 229.64,143.13 231.05,143.58 C232.53,144.04 233.95,144.52 235.32,145.00 C239.38,146.46 243.48,148.21 247.65,150.25 C247.72,150.28 247.79,150.31 247.86,150.35 C250.42,151.69 252.84,153.15 255.18,154.77 C263.75,160.79 272.75,169.84 279.59,179.19 C284.95,186.68 288.86,194.45 291.36,202.60 C292.45,206.45 293.26,210.54 293.82,215.06 L 293.82 215.06 C294.54,221.44 294.90,228.99 294.78,235.55 L 294.78 235.55 C294.66,240.10 294.28,244.28 293.61,248.29 C292.49,253.97 290.45,260.57 288.11,266.47 C287.25,268.44 286.31,270.45 285.26,272.50 C283.96,275.06 282.92,277.09 282.09,278.71 C281.37,279.81 280.67,280.72 280.00,281.40 C278.19,283.26 278.13,283.21 277.52,279.40 C276.21,271.32 275.98,270.77 274.20,271.34 C263.55,274.75 254.43,277.36 249.50,278.39 L 243.50 279.65 L 239.00 287.18 C236.52,291.33 233.35,296.47 231.94,298.61 C225.56,308.32 224.93,309.69 226.32,310.85 C227.05,311.46 229.34,312.66 231.40,313.52 C231.41,313.53 231.43,313.54 231.45,313.54 ZM 227.02 252.75 C227.02,252.64 227.03,252.52 227.05,252.39 C227.77,250.44 228.72,247.68 229.81,244.40 L 230.99 241.81 L 230.73 241.60 C231.31,239.83 231.91,237.95 232.53,236.00 C233.44,233.13 234.54,229.74 235.40,227.21 C235.56,226.86 235.71,226.54 235.85,226.27 C236.35,225.34 236.54,224.69 236.42,224.27 C239.70,215.13 239.58,214.68 233.79,210.67 C230.88,208.65 225.95,205.08 222.83,202.75 C220.93,201.32 218.12,199.24 215.40,197.24 C214.93,196.86 214.44,196.48 213.93,196.09 C212.26,194.82 210.97,193.89 209.93,193.23 L 203.87 188.81 L 201.06 190.74 C200.68,190.82 200.20,191.11 199.52,191.61 C199.09,191.92 198.77,192.20 198.56,192.47 L 197.56 193.15 C195.98,194.24 194.43,195.33 192.91,196.40 C192.32,196.54 191.43,197.08 190.23,198.03 C189.66,198.48 189.15,198.96 188.72,199.42 C185.22,201.97 181.99,204.41 179.20,206.61 C178.50,207.05 177.62,207.72 176.64,208.57 C176.36,208.82 176.11,209.06 175.88,209.30 C171.62,212.82 169.00,215.38 169.00,216.18 C169.00,216.98 170.77,222.88 173.26,230.45 L 173.26 230.45 C173.30,230.59 173.35,230.72 173.39,230.85 C174.09,232.98 174.84,235.24 175.63,237.55 L 179.05 247.60 C179.23,248.21 179.42,248.80 179.62,249.29 L 182.26 257.04 L 203.77 256.77 C221.73,256.54 225.40,256.25 226.00,255.00 C226.01,254.98 226.02,254.95 226.03,254.93 C226.63,255.01 227.01,254.27 227.02,252.75 ZM 195.78 159.88 L 195.79 159.88 C196.74,159.66 197.46,159.49 197.75,159.41 C198.13,159.30 198.41,159.15 198.61,158.98 C198.97,158.75 199.00,158.51 199.00,158.17 C199.00,158.14 198.99,158.11 198.97,158.08 C198.86,157.51 198.15,157.00 197.00,157.00 C195.90,157.00 195.00,156.61 195.00,156.13 C195.00,154.77 179.47,153.71 177.33,154.92 C176.33,155.49 171.57,157.11 166.77,158.53 C161.97,159.95 157.69,161.69 157.27,162.40 C156.85,163.11 155.24,164.50 153.69,165.49 C150.82,167.34 144.71,175.38 145.54,176.20 C145.79,176.46 144.83,177.29 143.40,178.05 C141.98,178.81 139.78,181.48 138.52,183.97 C134.55,191.85 131.25,213.00 134.00,213.00 C134.55,213.00 135.00,214.10 135.00,215.43 C135.00,216.59 135.34,218.46 135.80,219.92 C136.07,221.15 136.43,222.03 136.86,222.41 C137.31,223.02 137.74,222.69 138.75,221.68 C139.60,220.83 140.06,219.56 140.25,217.23 C140.64,215.99 141.06,214.51 141.51,212.80 C142.73,208.23 144.90,202.02 146.35,199.00 C147.57,196.44 148.61,193.87 148.91,192.71 C148.99,192.41 149.06,192.10 149.11,191.79 C150.53,188.49 164.62,174.73 171.11,170.46 C174.34,168.34 176.99,166.70 179.37,165.39 L 179.37 165.39 C183.59,163.08 186.87,161.89 191.00,160.97 C193.10,160.51 194.64,160.16 195.78,159.88 ZM 233.80 97.95 C231.01,95.17 230.80,94.47 231.25,89.79 C231.58,86.34 232.35,84.21 233.62,83.29 C238.68,79.59 246.15,80.57 249.04,85.30 C251.98,90.11 251.56,93.64 247.60,97.60 C243.02,102.18 238.16,102.31 233.80,97.95 ZM 159.69 117.20 C157.63,115.05 157.00,113.39 157.00,110.15 C157.00,104.19 160.28,101.00 166.40,101.00 C172.70,101.00 175.98,103.98 176.19,109.90 C176.32,113.69 175.89,114.71 173.15,117.15 C168.77,121.07 163.41,121.09 159.69,117.20 Z" fill="rgb(231,233,235)"/>
</g>
</svg>